<?xml version="1.0" encoding="utf-8"?>
<!-- Generator: Adobe Illustrator 19.0.0, SVG Export Plug-In . SVG Version: 6.00 Build 0)  -->
<svg version="1.1" id="Capa_1" xmlns="http://www.w3.org/2000/svg" xmlns:xlink="http://www.w3.org/1999/xlink" x="0px" y="0px"
	 viewBox="-383.9 250.9 198.5 65.3" style="enable-background:new -383.9 250.9 198.5 65.3;" xml:space="preserve">
<style type="text/css">
	.st0{opacity:0.45;}
	.st1{fill:#8BBF17;}
	.st2{fill:#A4A4A4;}
	.st3{fill:#6E16C1;stroke:#000000;stroke-width:0.25;stroke-miterlimit:10;}
	.st4{fill:#A4A4A4;stroke:#8BBF17;stroke-miterlimit:10;}
</style>
<g>
	<g class="st0">
		<g>
			<path class="st1" d="M-364.7,291.7c-0.5,0-1-0.2-1.6-0.7l-15.7-12.1c-0.9-0.7-1.4-1.6-1.4-2.9v-2c0-1.2,0.5-2.2,1.4-2.9
				l15.7-12.2c0.5-0.4,1-0.7,1.6-0.7c0.7,0,1.3,0.3,1.8,1c0.5,0.6,0.7,1.3,0.7,2.2c0,1.1-0.4,2-1.1,2.5l-14.2,11l14.2,10.9
				c0.7,0.6,1.1,1.5,1.1,2.6c0,0.9-0.2,1.6-0.7,2.2C-363.5,291.3-364.1,291.7-364.7,291.7z"/>
			<path class="st2" d="M-364.7,258.8c0.5,0,1,0.3,1.4,0.8s0.6,1.1,0.6,1.9c0,1-0.3,1.7-0.9,2.1l-14.7,11.4l14.7,11.3
				c0.6,0.5,0.9,1.2,0.9,2.2c0,0.7-0.2,1.4-0.6,1.9s-0.9,0.8-1.4,0.8c-0.4,0-0.8-0.2-1.3-0.6l-15.7-12.1c-0.8-0.6-1.2-1.4-1.2-2.5
				v-2c0-1,0.4-1.9,1.2-2.5l15.7-12.2C-365.6,259-365.2,258.8-364.7,258.8 M-364.7,257.8c-0.7,0-1.3,0.3-1.9,0.8l-15.7,12.1
				c-1,0.8-1.6,1.9-1.6,3.3v2c0,1.4,0.6,2.5,1.6,3.3l15.7,12.1c0.6,0.5,1.3,0.8,1.9,0.8s1.4-0.2,2.2-1.2c0.5-0.7,0.8-1.5,0.8-2.5
				c0-1.3-0.4-2.3-1.2-3l0,0l0,0l-13.6-10.5l13.6-10.6c0.8-0.7,1.3-1.6,1.3-2.9c0-1-0.3-1.8-0.8-2.5
				C-363.3,258-364.2,257.8-364.7,257.8L-364.7,257.8z"/>
		</g>
		<g>
			<path class="st1" d="M-342.9,296.2c-1.1,0-2.1-0.4-3.2-1.3c-1.1-0.8-1.8-1.8-2.3-2.8l-4.6-11.6c-0.6-1.7-1-3.5-1-5.3
				c0-2,0.3-3.8,0.9-5.3l4.6-11.5c0.5-1.1,1.2-2.2,2.2-3c1-0.9,2-1.4,3-1.4h7.9c0.7,0,1.3,0.3,1.8,1c0.5,0.6,0.7,1.3,0.7,2.1
				c0,0.8-0.2,1.6-0.7,2.2c-0.5,0.7-1.1,1-1.8,1h-7.6c-0.4,0-0.8,0.4-1.1,1.2l-4.4,10.8c-0.3,0.8-0.5,1.7-0.5,2.8
				c0,1.2,0.2,2.2,0.5,3l4.2,10.6c0.4,1.2,1,1.3,1.5,1.3h7.2c0.7,0,1.3,0.3,1.8,1c0.5,0.6,0.7,1.3,0.7,2.2c0,0.8-0.2,1.6-0.7,2.2
				s-1.1,0.9-1.8,0.9h-7.3V296.2z"/>
			<path class="st2" d="M-335.4,254.4c0.6,0,1,0.3,1.4,0.8s0.6,1.1,0.6,1.8c0,0.7-0.2,1.3-0.6,1.9c-0.4,0.5-0.9,0.8-1.4,0.8h-7.6
				c-0.6,0-1.1,0.5-1.5,1.5l-4.4,10.8c-0.3,0.8-0.5,1.9-0.5,3c0,1.2,0.2,2.3,0.6,3.2l4.2,10.6c0.4,1.1,1,1.6,1.9,1.6l0,0h7.2
				c0.6,0,1,0.3,1.4,0.8s0.6,1.1,0.6,1.8c0,0.7-0.2,1.3-0.6,1.8s-0.9,0.8-1.4,0.8h-7.4c-0.9,0-1.9-0.4-2.9-1.2
				c-1-0.8-1.7-1.7-2.1-2.6l-4.6-11.6c-0.6-1.7-0.9-3.4-0.9-5.2c0-1.9,0.3-3.6,0.9-5.1l4.6-11.5c0.4-1.1,1.1-2,2.1-2.8
				c0.9-0.8,1.8-1.2,2.7-1.2L-335.4,254.4 M-335.4,253.4h-7.9c-1.1,0-2.2,0.5-3.4,1.5c-1,0.9-1.8,2-2.3,3.2l-4.6,11.5
				c-0.6,1.5-0.9,3.4-0.9,5.4c0,1.9,0.3,3.7,1,5.5l4.6,11.7c0.5,1.1,1.3,2.2,2.4,3.1c1.2,0.9,2.4,1.4,3.6,1.4h7.4
				c0.6,0,1.5-0.2,2.2-1.1c0.5-0.7,0.8-1.5,0.8-2.5s-0.3-1.8-0.8-2.5c-0.7-0.9-1.6-1.1-2.2-1.1h-7.2l0,0c-0.2,0-0.6,0-1-1l-4.2-10.6
				c-0.3-0.8-0.5-1.8-0.5-2.9c0-1,0.1-1.9,0.4-2.6l4.4-10.8c0.2-0.6,0.5-0.8,0.6-0.8h7.6c0.6,0,1.5-0.2,2.2-1.2
				c0.5-0.7,0.8-1.5,0.8-2.5c0-0.9-0.3-1.7-0.8-2.4C-333.9,253.6-334.8,253.4-335.4,253.4L-335.4,253.4z"/>
		</g>
		<g>
			<path class="st1" d="M-321.8,291.7c-0.7,0-1.2-0.3-1.8-0.9c-0.5-0.6-0.7-1.3-0.7-2.2c0-1.2,0.4-2,1.1-2.6l14.1-11l-14.1-10.9
				c-0.7-0.6-1.1-1.5-1.1-2.6c0-0.9,0.2-1.6,0.7-2.2c0.5-0.6,1.1-0.9,1.8-0.9c0.5,0,1.1,0.2,1.6,0.7l15.7,12.1
				c0.9,0.7,1.4,1.7,1.4,2.9v2c0,1.2-0.5,2.2-1.3,2.9l-15.7,12.1C-320.7,291.4-321.3,291.7-321.8,291.7z"/>
			<path class="st2" d="M-321.8,258.8c0.4,0,0.8,0.2,1.3,0.6l15.7,12.1c0.8,0.6,1.2,1.4,1.2,2.5v2c0,1.1-0.4,1.9-1.2,2.5l-15.7,12.1
				c-0.5,0.4-0.9,0.6-1.3,0.6c-0.5,0-1-0.2-1.4-0.7s-0.6-1.1-0.6-1.9c0-1,0.3-1.7,0.9-2.2l14.6-11.4l-14.6-11.3
				c-0.6-0.5-0.9-1.2-0.9-2.2c0-0.8,0.2-1.4,0.6-1.9C-322.8,259-322.3,258.8-321.8,258.8 M-321.8,257.8c-0.6,0-1.4,0.2-2.1,1.1
				c-0.5,0.7-0.8,1.5-0.8,2.5c0,1.3,0.4,2.3,1.3,3l13.7,10.5l-13.6,10.6c-0.8,0.7-1.3,1.6-1.3,3c0,1,0.3,1.8,0.8,2.5
				c0.7,0.9,1.6,1.1,2.1,1.1c0.6,0,1.3-0.3,1.9-0.8l15.7-12.1c1-0.8,1.5-1.9,1.5-3.3v-2c0-1.4-0.5-2.5-1.5-3.3l-15.7-12.1
				C-320.5,258-321.2,257.8-321.8,257.8L-321.8,257.8z"/>
		</g>
		<g>
			<path class="st1" d="M-276.8,291.7c-0.5,0-1-0.2-1.6-0.7l-15.7-12.1c-0.9-0.7-1.4-1.6-1.4-2.9v-2c0-1.2,0.5-2.2,1.4-2.9
				l15.7-12.2c0.5-0.4,1-0.7,1.6-0.7c0.7,0,1.3,0.3,1.8,1c0.5,0.6,0.7,1.3,0.7,2.2c0,1.1-0.4,2-1.1,2.5l-14.2,11l14.2,10.9
				c0.7,0.6,1.1,1.5,1.1,2.6c0,0.9-0.2,1.6-0.7,2.2C-275.6,291.3-276.2,291.7-276.8,291.7z"/>
			<path class="st2" d="M-276.8,258.8c0.5,0,1,0.3,1.4,0.8s0.6,1.1,0.6,1.9c0,1-0.3,1.7-0.9,2.1l-14.7,11.4l14.7,11.3
				c0.6,0.5,0.9,1.2,0.9,2.2c0,0.7-0.2,1.4-0.6,1.9s-0.9,0.8-1.4,0.8c-0.4,0-0.8-0.2-1.3-0.6l-15.7-12.1c-0.8-0.6-1.2-1.4-1.2-2.5
				v-2c0-1,0.4-1.9,1.2-2.5l15.7-12.2C-277.7,259-277.3,258.8-276.8,258.8 M-276.8,257.8c-0.7,0-1.3,0.3-1.9,0.8l-15.7,12.1
				c-1,0.8-1.6,1.9-1.6,3.3v2c0,1.4,0.6,2.5,1.6,3.3l15.7,12.1c0.6,0.5,1.3,0.8,1.9,0.8s1.4-0.2,2.2-1.2c0.5-0.7,0.8-1.5,0.8-2.5
				c0-1.3-0.4-2.3-1.2-3l0,0l0,0l-13.6-10.5l13.6-10.6c0.8-0.7,1.3-1.6,1.3-2.9c0-1-0.3-1.8-0.8-2.5
				C-275.4,258-276.3,257.8-276.8,257.8L-276.8,257.8z"/>
		</g>
		<g>
			<path class="st1" d="M-263.1,296.2c-0.7,0-1.3-0.3-1.8-0.9s-0.8-1.3-0.8-2.1c0-0.7,0.2-1.5,0.5-2.2l16.2-35.9
				c0.4-0.9,1.2-1.1,1.7-1.1c0.6,0,1.2,0.3,1.8,0.8c0.5,0.5,0.8,1.2,0.8,2.1c0,0.8-0.2,1.5-0.5,2.3l-16.2,35.9
				C-261.8,295.8-262.3,296.2-263.1,296.2z"/>
			<path class="st2" d="M-247.3,254.4c0.5,0,1,0.2,1.4,0.7s0.7,1,0.7,1.8c0,0.7-0.2,1.4-0.5,2.1l-16.2,35.9
				c-0.3,0.5-0.7,0.8-1.2,0.8s-1-0.2-1.5-0.7c-0.4-0.5-0.7-1.1-0.7-1.8c0-0.6,0.2-1.3,0.5-2l16.2-35.9
				C-248.3,254.7-247.9,254.4-247.3,254.4 M-247.3,253.4c-1,0-1.7,0.5-2.2,1.4l-16.2,35.9c-0.4,0.9-0.6,1.7-0.6,2.5
				c0,1,0.3,1.8,1,2.5c0.6,0.7,1.4,1,2.2,1c0.9,0,1.7-0.5,2.1-1.4l16.2-35.9c0.4-0.8,0.6-1.7,0.6-2.5c0-1-0.3-1.8-1-2.5
				C-245.8,253.7-246.6,253.4-247.3,253.4L-247.3,253.4z"/>
		</g>
		<g>
			<path class="st1" d="M-230.5,296.2c-1.8,0-3.4-0.8-4.6-2.5c-1.2-1.6-1.9-3.6-1.9-5.8v-14.5c0-2.7,0.6-5,1.7-6.8l5.9-9.8
				c0.5-0.8,1.1-1.5,1.9-2c0.8-0.6,1.7-0.9,2.7-0.9h6.6c0.7,0,1.3,0.3,1.8,1c0.5,0.6,0.7,1.3,0.7,2.2s-0.3,1.6-0.7,2.2
				c-0.5,0.6-1.1,0.9-1.8,0.9h-6.3c-0.2,0-0.7,0-1.2,0.9l-5.6,9.4c-0.4,0.7-0.6,1.6-0.6,2.8v14.4c0,0.6,0.2,1.2,0.5,1.6
				s0.6,0.6,1,0.6h8.1c0.4,0,0.7-0.2,1-0.6s0.5-0.9,0.5-1.5v-5.1h-3.6c-0.7,0-1.3-0.3-1.8-1c-0.4-0.6-0.7-1.3-0.7-2.1
				s0.2-1.6,0.7-2.1c0.5-0.6,1.1-1,1.8-1h8.6v11.4c0,2.3-0.6,4.2-1.9,5.8c-1.3,1.7-2.8,2.5-4.6,2.5L-230.5,296.2L-230.5,296.2z"/>
			<path class="st2" d="M-218.2,254.4c0.6,0,1,0.3,1.4,0.8s0.6,1.1,0.6,1.8c0,0.8-0.2,1.4-0.6,1.9c-0.4,0.5-0.9,0.8-1.4,0.8h-6.3
				l0,0c-0.6,0-1.1,0.4-1.6,1.1l-5.6,9.4c-0.5,0.7-0.7,1.8-0.7,3.1v14.4c0,0.7,0.2,1.4,0.6,1.9s0.9,0.8,1.4,0.8h8.1
				c0.5,0,1-0.3,1.4-0.8s0.6-1.1,0.6-1.8v-5.6h-4.1c-0.6,0-1-0.3-1.4-0.8s-0.6-1.1-0.6-1.8c0-0.7,0.2-1.3,0.6-1.8
				c0.4-0.5,0.9-0.8,1.4-0.8h8.1V288c0,2.2-0.6,4-1.8,5.5s-2.6,2.3-4.2,2.3h-8.1c-1.7,0-3.1-0.8-4.3-2.3c-1.2-1.5-1.8-3.4-1.8-5.5
				v-14.5c0-2.6,0.5-4.8,1.6-6.5l5.9-9.8c0.4-0.7,1-1.4,1.8-1.9s1.6-0.8,2.4-0.8H-218.2 M-218.2,253.4h-6.6c-1,0-2,0.3-2.9,0.9
				c-0.9,0.6-1.6,1.4-2.1,2.2l-5.9,9.8c-1.1,1.9-1.7,4.3-1.7,7.1v14.4c0,2.4,0.7,4.4,2,6.1c1.4,1.8,3.1,2.7,5,2.7h8.1
				c2,0,3.6-0.9,5-2.7c1.3-1.7,2-3.8,2-6.1v-10.9v-1h-1h-8.1c-0.9,0-1.7,0.4-2.2,1.2c-0.5,0.7-0.8,1.5-0.8,2.4s0.3,1.8,0.8,2.4
				c0.6,0.8,1.3,1.2,2.2,1.2h3.1v4.6c0,0.5-0.1,0.9-0.4,1.2c-0.3,0.4-0.5,0.4-0.6,0.4h-8.1c-0.2,0-0.4,0-0.6-0.4
				c-0.3-0.3-0.4-0.8-0.4-1.3v-14.4c0-1.1,0.2-2,0.6-2.6l5.6-9.4c0.2-0.3,0.4-0.6,0.7-0.6h6.3c0.6,0,1.4-0.2,2.1-1.1
				c0.6-0.7,0.9-1.5,0.9-2.5c0-0.9-0.3-1.8-0.8-2.5C-216.8,253.6-217.6,253.4-218.2,253.4L-218.2,253.4z"/>
		</g>
		<g>
			<path class="st1" d="M-204.6,291.7c-0.7,0-1.2-0.3-1.8-0.9c-0.5-0.6-0.7-1.3-0.7-2.2c0-1.2,0.4-2,1.1-2.6l14.1-11l-14.1-10.9
				c-0.7-0.6-1.1-1.5-1.1-2.6c0-0.9,0.2-1.6,0.7-2.2c0.5-0.6,1.1-0.9,1.8-0.9c0.5,0,1.1,0.2,1.6,0.7l15.7,12.1
				c0.9,0.7,1.4,1.7,1.4,2.9v2c0,1.2-0.5,2.2-1.3,2.9l-15.7,12.1C-203.5,291.4-204.1,291.7-204.6,291.7z"/>
			<path class="st2" d="M-204.6,258.8c0.4,0,0.8,0.2,1.3,0.6l15.7,12.1c0.8,0.6,1.2,1.4,1.2,2.5v2c0,1.1-0.4,1.9-1.2,2.5l-15.7,12.1
				c-0.5,0.4-0.9,0.6-1.3,0.6c-0.5,0-1-0.2-1.4-0.7s-0.6-1.1-0.6-1.9c0-1,0.3-1.7,0.9-2.2l14.6-11.4l-14.6-11.3
				c-0.6-0.5-0.9-1.2-0.9-2.2c0-0.8,0.2-1.4,0.6-1.9C-205.6,259-205.1,258.8-204.6,258.8 M-204.6,257.8c-0.6,0-1.4,0.2-2.1,1.1
				c-0.5,0.7-0.8,1.5-0.8,2.5c0,1.3,0.4,2.3,1.3,3l13.7,10.5l-13.6,10.6c-0.8,0.6-1.3,1.6-1.3,3c0,1,0.3,1.8,0.8,2.5
				c0.8,0.9,1.6,1.1,2.1,1.1c0.6,0,1.3-0.3,1.9-0.8l15.7-12.1c1-0.8,1.5-1.9,1.5-3.3v-2c0-1.4-0.5-2.5-1.5-3.3l-15.7-12.1
				C-203.3,258-204,257.8-204.6,257.8L-204.6,257.8z"/>
		</g>
	</g>
	<g>
		<path class="st3" d="M-379.4,276v-1.9c0-1,0.4-1.8,1.2-2.4l15.1-11.7c0.4-0.4,0.8-0.5,1.2-0.5c0.5,0,0.9,0.2,1.3,0.7
			s0.6,1.1,0.6,1.8c0,0.9-0.3,1.6-0.8,2.1l-14.1,11l14.2,10.9c0.6,0.5,0.8,1.2,0.8,2.1c0,0.7-0.2,1.3-0.6,1.8s-0.8,0.8-1.3,0.8
			c-0.4,0-0.8-0.2-1.2-0.5l-15.1-11.7C-379.1,277.8-379.4,277-379.4,276z"/>
		<path class="st3" d="M-340.6,289.9h6.9c0.5,0,1,0.2,1.4,0.7s0.6,1.1,0.6,1.8s-0.2,1.3-0.6,1.8s-0.8,0.7-1.4,0.7h-7.2
			c-0.9,0-1.9-0.4-2.8-1.1c-1-0.8-1.7-1.6-2-2.5l-4.4-11.2c-0.6-1.6-0.9-3.3-0.9-5c0-1.9,0.3-3.5,0.8-4.9l4.5-11.1
			c0.4-1,1.1-2,2-2.7c0.9-0.7,1.8-1.2,2.6-1.2h7.6c0.5,0,1,0.3,1.4,0.7c0.4,0.5,0.6,1.1,0.6,1.8c0,0.7-0.2,1.3-0.6,1.8
			s-0.8,0.8-1.4,0.8h-7.3c-0.6,0-1.1,0.5-1.5,1.4l-4.3,10.4c-0.3,0.8-0.5,1.8-0.5,2.9c0,1.2,0.2,2.2,0.5,3.1l4.1,10.2
			C-342.1,289.4-341.5,289.9-340.6,289.9z"/>
		<path class="st3" d="M-303,274v2c0,1-0.4,1.8-1.1,2.4l-15.1,11.7c-0.4,0.4-0.9,0.5-1.3,0.5c-0.5,0-0.9-0.2-1.3-0.7
			s-0.6-1.1-0.6-1.8c0-1,0.3-1.7,0.9-2.1l14.1-11l-14.1-10.9c-0.6-0.5-0.9-1.2-0.9-2.2c0-0.7,0.2-1.4,0.6-1.8
			c0.4-0.5,0.8-0.7,1.3-0.7c0.4,0,0.8,0.2,1.3,0.5l15.1,11.7C-303.4,272.2-303,273-303,274z"/>
		<path class="st3" d="M-294.6,276v-1.9c0-1,0.4-1.8,1.2-2.4l15.1-11.7c0.4-0.4,0.8-0.5,1.2-0.5c0.5,0,0.9,0.2,1.3,0.7
			s0.6,1.1,0.6,1.8c0,0.9-0.3,1.6-0.8,2.1l-14.1,11l14.2,10.9c0.6,0.5,0.8,1.2,0.8,2.1c0,0.7-0.2,1.3-0.6,1.8s-0.8,0.8-1.3,0.8
			c-0.4,0-0.8-0.2-1.2-0.5l-15.1-11.7C-294.2,277.8-294.6,277-294.6,276z"/>
		<path class="st3" d="M-247.1,259.5l-15.6,34.6c-0.2,0.5-0.6,0.8-1.2,0.8c-0.5,0-1-0.2-1.4-0.7c-0.4-0.4-0.7-1-0.7-1.7
			c0-0.6,0.2-1.3,0.5-2l15.6-34.6c0.3-0.5,0.7-0.8,1.2-0.8s0.9,0.2,1.4,0.6c0.4,0.4,0.6,1,0.6,1.7
			C-246.6,258.1-246.8,258.8-247.1,259.5z"/>
		<path class="st3" d="M-227,255.1h6.4c0.5,0,1,0.2,1.4,0.7s0.6,1.1,0.6,1.8c0,0.7-0.2,1.4-0.6,1.8c-0.4,0.5-0.8,0.7-1.3,0.7h-6.1
			c-0.6,0-1.1,0.4-1.6,1.1l-5.4,9.1c-0.5,0.7-0.7,1.7-0.7,3v13.9c0,0.7,0.2,1.3,0.6,1.8s0.8,0.7,1.4,0.7h7.8c0.5,0,1-0.2,1.3-0.7
			c0.4-0.5,0.6-1.1,0.6-1.8v-5.4h-4c-0.5,0-1-0.2-1.4-0.7s-0.5-1.1-0.5-1.8s0.2-1.3,0.5-1.8c0.4-0.5,0.8-0.7,1.4-0.7h7.8v10.6
			c0,2.1-0.6,3.9-1.7,5.3c-1.1,1.5-2.5,2.2-4.1,2.2h-7.8c-1.6,0-3-0.7-4.1-2.2s-1.7-3.3-1.7-5.3v-13.9c0-2.5,0.5-4.6,1.5-6.3
			l5.7-9.4c0.4-0.7,1-1.3,1.7-1.8C-228.5,255.4-227.8,255.1-227,255.1z"/>
		<path class="st3" d="M-189.9,274v2c0,1-0.4,1.8-1.1,2.4l-15.1,11.7c-0.4,0.4-0.9,0.5-1.3,0.5c-0.5,0-0.9-0.2-1.3-0.7
			c-0.4-0.5-0.6-1.1-0.6-1.8c0-1,0.3-1.7,0.9-2.1l14.1-11l-14.1-10.9c-0.6-0.5-0.9-1.2-0.9-2.2c0-0.7,0.2-1.4,0.6-1.8
			c0.4-0.5,0.8-0.7,1.3-0.7c0.4,0,0.8,0.2,1.3,0.5l15.1,11.7C-190.3,272.2-189.9,273-189.9,274z"/>
	</g>
</g>
<g>
	<g>
		<path class="st4" d="M-348.5,313h4.6c0.3,0,0.6,0,0.9,0.2c0.3,0.2,0.3,0.3,0.3,0.5s-0.2,0.5-0.3,0.5c-0.2,0-0.6,0.2-0.9,0.2h-4.7
			c-0.6,0-1.3-0.2-1.9-0.3c-0.6-0.2-1.1-0.5-1.3-0.8l-2.8-3.7c-0.3-0.5-0.6-1-0.6-1.7c0-0.7,0.2-1.2,0.5-1.7l3-3.7
			c0.3-0.3,0.8-0.7,1.3-0.8c0.5-0.2,1.1-0.3,1.7-0.3h4.9c0.3,0,0.6,0,0.9,0.2c0.3,0.2,0.3,0.3,0.3,0.5c0,0.2-0.2,0.5-0.3,0.7
			c-0.3,0.2-0.5,0.2-0.9,0.2h-4.7c-0.5,0-0.8,0.2-0.9,0.5l-2.8,3.4c-0.2,0.3-0.3,0.7-0.3,1c0,0.3,0.2,0.7,0.3,1l2.7,3.4
			C-349.4,312.8-349.1,313-348.5,313z"/>
		<path class="st4" d="M-327.7,302.7l2.7,3.7c0.3,0.5,0.6,1,0.6,1.7c0,0.5-0.2,1.2-0.6,1.7l-2.7,3.7c-0.6,0.8-1.6,1.2-3,1.2
			c-0.6,0-1.3-0.2-1.7-0.3c-0.5-0.2-0.9-0.5-1.3-0.8l-2.8-3.7c-0.3-0.5-0.5-1-0.5-1.7c0-0.7,0.2-1.2,0.5-1.7l2.8-3.7
			c0.6-0.8,1.6-1.2,3-1.2S-328.3,301.9-327.7,302.7z M-331.5,303.6l-2.5,3.5c-0.3,0.3-0.3,0.7-0.3,1c0,0.3,0.2,0.7,0.3,1l2.7,3.5
			c0.2,0.2,0.3,0.3,0.8,0.3c0.3,0,0.6-0.2,0.8-0.3l2.7-3.5c0.3-0.3,0.3-0.7,0.3-1c0-0.3-0.2-0.7-0.3-1l-2.7-3.5
			c-0.2-0.3-0.5-0.3-0.8-0.3C-331,303.1-331.3,303.2-331.5,303.6z"/>
		<path class="st4" d="M-317.3,301.5h4.9c0.6,0,1.3,0.2,1.9,0.3c0.6,0.2,1.1,0.7,1.4,1l2.5,3.4c0.5,0.7,0.6,1.2,0.6,1.9
			c0,0.7-0.3,1.2-0.8,1.9l-2.5,3.2c-0.3,0.5-0.8,0.8-1.4,1c-0.6,0.3-1.3,0.3-2,0.3h-4.7c-0.3,0-0.6,0-0.9-0.2
			c-0.3-0.2-0.3-0.3-0.3-0.5c0-0.2,0.2-0.5,0.3-0.7c0.2-0.2,0.5-0.2,0.9-0.2h1.3v-9.8h-1.3c-0.3,0-0.6,0-0.9-0.2
			c-0.3-0.2-0.3-0.3-0.3-0.7c0-0.2,0.2-0.3,0.3-0.5C-318.2,301.7-317.6,301.5-317.3,301.5z M-313.5,303.2v9.8h0.9
			c0.6,0,0.9-0.2,1.3-0.5l2.5-3.2c0.3-0.5,0.5-0.8,0.5-1c0-0.3-0.2-0.7-0.3-1l-2.5-3.4c-0.3-0.3-0.6-0.5-1.3-0.5h-1.1V303.2z"/>
		<path class="st4" d="M-288.8,303.2h-8.8v4h3.8c0.3,0,0.6,0,0.9,0.2c0.3,0.2,0.3,0.3,0.3,0.5c0,0.2-0.2,0.5-0.3,0.7
			c-0.2,0.2-0.5,0.2-0.9,0.2h-3.8v4h8.8c0.3,0,0.6,0,0.9,0.2c0.3,0.2,0.3,0.3,0.3,0.5c0,0.2-0.2,0.5-0.3,0.5s-0.6,0.2-0.9,0.2h-11.3
			v-12.6h11.3c0.3,0,0.6,0,0.9,0.2c0.3,0.2,0.3,0.3,0.3,0.7c0,0.2-0.2,0.3-0.3,0.5S-288.5,303.2-288.8,303.2z"/>
		<path class="st4" d="M-274.5,301.5h4.1c0.3,0,0.6,0,0.9,0.2c0.3,0.2,0.3,0.3,0.3,0.5c0,0.2-0.2,0.5-0.5,0.7
			c-0.3,0.2-0.5,0.2-0.8,0.2h-3.9c-0.3,0-0.8,0.2-0.9,0.3l-3.5,3c-0.3,0.2-0.5,0.5-0.5,1v4.6c0,0.2,0.2,0.5,0.3,0.7
			c0.2,0.2,0.5,0.2,0.9,0.2h5c0.3,0,0.6,0,0.9-0.2c0.3-0.2,0.3-0.3,0.3-0.5v-1.9h-2.5c-0.3,0-0.6,0-0.9-0.2
			c-0.3-0.2-0.3-0.3-0.3-0.5c0-0.2,0.2-0.5,0.3-0.5c0.3-0.2,0.5-0.2,0.9-0.2h5v3.5c0,0.7-0.3,1.3-1.1,1.7c-0.8,0.5-1.6,0.7-2.7,0.7
			h-5c-1.1,0-1.9-0.2-2.7-0.7c-0.8-0.5-1.1-1-1.1-1.7v-4.6c0-0.8,0.3-1.5,0.9-2l3.6-3c0.3-0.2,0.6-0.5,1.1-0.7
			C-275.6,301.5-275.1,301.5-274.5,301.5z"/>
		<path class="st4" d="M-263.3,313.8v-12.3h8.8c0.9,0,1.9,0.2,2.7,0.7c0.8,0.5,1.1,1,1.1,1.7v1c0,0.7-0.3,1.3-1.1,1.9
			c-0.8,0.5-1.6,0.7-2.7,0.7h-1.6l5,5.9c0.2,0.2,0.3,0.3,0.3,0.5c0,0.2-0.2,0.3-0.3,0.5c-0.2,0.2-0.6,0.2-0.9,0.2
			c-0.5,0-0.9-0.2-1.1-0.5l-5.8-6.7h-1.7v6.4c0,0.2-0.2,0.5-0.3,0.5c-0.3,0.2-0.6,0.2-0.9,0.2c-0.3,0-0.6,0-0.9-0.2
			C-263.2,314-263.3,314-263.3,313.8z M-260.8,305.8h6.3c0.3,0,0.6,0,0.9-0.2s0.3-0.3,0.3-0.5v-1c0-0.2-0.2-0.5-0.3-0.5
			c-0.3-0.2-0.5-0.2-0.9-0.2h-6.3V305.8z"/>
		<path class="st4" d="M-244.9,313.5l5-11.3c0.2-0.3,0.6-0.7,1.3-0.7c0.6,0,0.9,0.2,1.1,0.5l5,11.5c0,0.2,0,0.2,0,0.2
			c0,0.2-0.2,0.5-0.3,0.5c-0.2,0-0.5,0.2-0.8,0.2c-0.6,0-1.1-0.2-1.3-0.7l-0.9-2.2h-5.7l-1.1,2.4c0,0.2-0.2,0.2-0.3,0.3
			c-0.2,0.2-0.5,0.2-0.8,0.2s-0.6,0-0.9-0.2C-244.9,314-244.9,313.8-244.9,313.5C-245.1,313.7-244.9,313.5-244.9,313.5z
			 M-238.6,305.2l-2.2,4.7h4.2L-238.6,305.2z"/>
		<path class="st4" d="M-221.6,306.6v-0.5l-2.5-2.5v9.9c0,0.2-0.2,0.5-0.3,0.5c-0.2,0-0.5,0.2-0.9,0.2c-0.3,0-0.6,0-0.9-0.2
			c-0.3-0.2-0.3-0.3-0.3-0.5v-12h3.3l3,3l3.1-3h3.1v12.3c0,0.2-0.2,0.5-0.3,0.5c-0.3,0.2-0.6,0.2-0.9,0.2s-0.6,0-0.9-0.2
			c-0.3-0.2-0.3-0.3-0.3-0.5v-9.9l-2.5,2.4v0.5c0,0.2-0.2,0.3-0.3,0.5c-0.2,0.2-0.5,0.2-0.9,0.2c-0.3,0-0.6,0-0.9-0.2
			C-221.6,307.1-221.6,306.9-221.6,306.6z"/>
	</g>
</g>
</svg>
